<svg width="1075" height="475" viewBox="0 0 1075 475" fill="none" xmlns="http://www.w3.org/2000/svg">
<path d="M945.693 97.1025C974.428 97.1025 998.318 103.443 1017.36 116.123C1036.74 128.803 1051.11 144.653 1060.46 163.673C1070.15 182.693 1075 203.214 1075 225.237C1075 247.261 1070.15 267.782 1060.46 286.802C1051.11 305.822 1036.74 321.672 1017.36 334.352C998.318 347.032 974.428 353.372 945.693 353.372C916.958 353.372 892.901 347.032 873.522 334.352C854.477 321.672 840.11 305.822 830.42 286.802C821.064 267.782 816.387 247.261 816.387 225.237C816.387 203.214 821.064 182.693 830.42 163.673C840.11 144.653 854.477 128.803 873.522 116.123C892.901 103.443 916.958 97.1025 945.693 97.1025ZM945.693 298.314C962.399 298.314 976.265 294.811 987.292 287.803C998.318 280.462 1006.5 271.453 1011.85 260.775C1017.2 249.763 1019.87 237.917 1019.87 225.237C1019.87 212.557 1017.03 200.878 1011.35 190.201C1006 179.189 997.817 170.179 986.79 163.172C975.764 155.831 962.065 152.16 945.693 152.16C929.321 152.16 915.622 155.831 904.596 163.172C893.57 170.179 885.216 179.189 879.536 190.201C874.19 200.878 871.517 212.557 871.517 225.237C871.517 237.917 874.19 249.763 879.536 260.775C884.882 271.453 893.068 280.462 904.095 287.803C915.121 294.811 928.987 298.314 945.693 298.314Z" fill="black"/>
<path d="M670.558 100.105C684.925 100.105 697.956 101.774 709.65 105.111C721.345 108.448 731.87 113.119 741.225 119.125V100.105H796.356V356.375C796.356 378.065 793.516 396.417 787.836 411.433C782.156 426.449 774.304 438.628 764.28 447.972C754.59 457.315 743.23 464.155 730.199 468.493C717.502 472.831 704.137 475 690.104 475C675.068 475 660.033 472.998 644.997 468.994C630.296 464.99 615.928 459.317 601.895 451.976L628.959 403.925C636.978 408.597 646 412.601 656.023 415.938C666.381 419.275 676.405 420.943 686.095 420.943C693.445 420.943 700.462 419.775 707.144 417.439C713.827 415.437 719.674 411.934 724.686 406.928C729.698 401.923 733.707 395.249 736.715 386.907C739.722 378.565 741.225 368.388 741.225 356.375V330.848C731.87 336.855 721.345 341.693 709.65 345.364C697.956 348.7 684.925 350.369 670.558 350.369C642.491 350.369 619.103 344.196 600.392 331.849C582.015 319.503 568.149 304.154 558.793 285.801C549.438 267.115 544.76 246.927 544.76 225.237C544.76 203.548 549.438 183.527 558.793 165.174C568.149 146.488 582.015 130.971 600.392 118.625C619.103 106.279 642.491 100.105 670.558 100.105ZM670.558 295.311C686.262 295.311 699.293 291.974 709.65 285.3C720.008 278.293 727.693 269.617 732.705 259.273C738.051 248.595 740.557 237.25 740.223 225.237C740.223 213.225 737.717 202.046 732.705 191.702C727.693 181.024 719.841 172.348 709.149 165.674C698.791 158.667 685.928 155.163 670.558 155.163C654.854 155.163 641.656 158.667 630.964 165.674C620.606 172.348 612.754 181.024 607.408 191.702C602.396 202.046 599.89 213.225 599.89 225.237C599.89 237.25 602.396 248.595 607.408 259.273C612.754 269.617 620.606 278.293 630.964 285.3C641.656 291.974 654.854 295.311 670.558 295.311Z" fill="#128B4D"/>
<path d="M398.429 350.369C370.362 350.369 346.974 344.196 328.263 331.849C309.886 319.503 296.02 304.154 286.664 285.801C277.309 267.115 272.631 246.927 272.631 225.237C272.631 203.548 277.309 183.527 286.664 165.174C296.02 146.488 309.886 130.971 328.263 118.625C346.974 106.279 370.362 100.105 398.429 100.105C420.147 100.105 438.858 103.943 454.562 111.618C470.6 119.292 483.631 129.303 493.655 141.649C504.012 153.996 511.697 168.01 516.709 183.693C521.721 199.377 524.227 215.227 524.227 231.244V350.369H449.065L469.096 331.349C459.741 337.355 449.216 342.027 437.522 345.364C425.827 348.7 412.796 350.369 398.429 350.369ZM398.429 155.163C382.725 155.163 369.527 158.667 358.835 165.674C348.477 172.348 340.625 181.024 335.279 191.702C330.267 202.046 327.761 213.225 327.761 225.237C327.761 237.25 330.267 248.595 335.279 259.273C340.625 269.617 348.477 278.293 358.835 285.3C369.527 291.974 382.725 295.311 398.429 295.311C414.133 295.311 427.164 291.974 437.522 285.3C448.214 278.293 456.065 269.617 461.077 259.273C466.423 248.595 469.096 237.25 469.096 225.237C469.096 213.225 466.423 202.046 461.077 191.702C456.065 181.024 448.214 172.348 437.522 165.674C427.164 158.667 414.133 155.163 398.429 155.163Z" fill="black"/>
<path d="M125.798 100.105C153.865 100.105 177.086 106.279 195.463 118.625C214.174 130.971 228.207 146.488 237.563 165.174C246.918 183.527 251.596 203.548 251.596 225.237C251.596 246.927 246.918 267.115 237.563 285.801C228.207 304.154 214.174 319.503 195.463 331.849C177.086 344.196 153.865 350.369 125.798 350.369C111.431 350.369 98.3998 348.7 86.7054 345.364C75.0111 341.693 64.4861 336.855 55.1306 330.848L75.1781 350.369H0V0H55.1306V119.125C64.4861 113.119 75.0111 108.448 86.7054 105.111C98.3998 101.774 111.431 100.105 125.798 100.105ZM125.798 295.311C141.502 295.311 154.533 291.974 164.891 285.3C175.583 278.293 183.435 269.617 188.446 259.273C193.792 248.595 196.465 237.25 196.465 225.237C196.465 213.224 193.792 202.046 188.446 191.702C183.435 181.024 175.583 172.348 164.891 165.674C154.533 158.667 141.502 155.163 125.798 155.163C110.428 155.163 97.5645 158.667 87.2066 165.674C76.8487 172.348 68.9968 181.024 63.6508 191.702C58.6389 202.046 56.133 213.224 56.133 225.237C56.133 237.25 58.6389 248.595 63.6508 259.273C68.9968 269.617 76.8487 278.293 87.2066 285.3C97.5645 291.974 110.428 295.311 125.798 295.311Z" fill="black"/>
</svg>
